<?xml version="1.0" encoding="utf-8"?>
<!-- Generator: Adobe Illustrator 25.2.3, SVG Export Plug-In . SVG Version: 6.00 Build 0)  -->
<svg version="1.1" xmlns="http://www.w3.org/2000/svg" xmlns:xlink="http://www.w3.org/1999/xlink" x="0px" y="0px"
	 viewBox="0 0 432 360" style="enable-background:new 0 0 432 360;" xml:space="preserve">
<style type="text/css">
	.st0{fill:#FFFFFF;}
	.st1{fill:none;}
	.st2{fill:#EBEBEB;}
	.st3{fill:none;stroke:#FFFFFF;stroke-width:0.53;stroke-linejoin:round;stroke-miterlimit:10;}
	.st4{fill:none;stroke:#FFFFFF;stroke-width:1.07;stroke-linejoin:round;stroke-miterlimit:10;}
	.st5{opacity:0.5;fill:none;stroke:#FFFFFF;stroke-width:1.07;stroke-linejoin:round;stroke-miterlimit:10;}
	.st6{fill:none;stroke:#3DC0F4;stroke-width:1.5;stroke-linecap:round;stroke-linejoin:round;stroke-miterlimit:10;}
	.st7{fill:#3A3A3A;}
	.st8{font-family:'Alice-Regular';}
	.st9{font-size:9.6628px;}
	.st10{fill:none;stroke:#333333;stroke-width:1.07;stroke-linejoin:round;stroke-miterlimit:10;}
	.st11{font-size:12px;}
	.st12{fill:none;stroke:#333333;stroke-width:0.5;stroke-linejoin:round;stroke-miterlimit:10;}
	.st13{fill:none;stroke:#727272;stroke-linecap:round;stroke-linejoin:round;stroke-miterlimit:10;}
	.st14{fill:#4C4C4C;}
	.st15{font-size:9px;}
</style>
<g id="Layer_3">
	<rect class="st0" width="432" height="360"/>
</g>
<g id="Layer_1">
	<rect x="51.1" y="5.5" class="st1" width="375.4" height="312.1"/>
	<rect x="51.1" y="5.5" class="st2" width="375.4" height="312.1"/>
	<rect x="51.1" y="5.5" class="st1" width="375.4" height="312.1"/>
	<line class="st3" x1="51.1" y1="261.9" x2="426.5" y2="261.9"/>
	<rect x="51.1" y="5.5" class="st1" width="375.4" height="312.1"/>
	<line class="st3" x1="51.1" y1="179" x2="426.5" y2="179"/>
	<rect x="51.1" y="5.5" class="st1" width="375.4" height="312.1"/>
	<line class="st3" x1="51.1" y1="96" x2="426.5" y2="96"/>
	<rect x="51.1" y="5.5" class="st1" width="375.4" height="312.1"/>
	<line class="st3" x1="51.1" y1="13" x2="426.5" y2="13"/>
	<rect x="51.1" y="5.5" class="st1" width="375.4" height="312.1"/>
	<line class="st3" x1="92.6" y1="317.6" x2="92.6" y2="5.5"/>
	<rect x="51.1" y="5.5" class="st1" width="375.4" height="312.1"/>
	<line class="st3" x1="182.6" y1="317.6" x2="182.6" y2="5.5"/>
	<rect x="51.1" y="5.5" class="st1" width="375.4" height="312.1"/>
	<line class="st3" x1="272.6" y1="317.6" x2="272.6" y2="5.5"/>
	<rect x="51.1" y="5.5" class="st1" width="375.4" height="312.1"/>
	<line class="st3" x1="362.6" y1="317.6" x2="362.6" y2="5.5"/>
	<rect x="51.1" y="5.5" class="st1" width="375.4" height="312.1"/>
	<line class="st4" x1="51.1" y1="303.4" x2="426.5" y2="303.4"/>
	<rect x="51.1" y="5.5" class="st1" width="375.4" height="312.1"/>
	<line class="st4" x1="51.1" y1="220.5" x2="426.5" y2="220.5"/>
	<rect x="51.1" y="5.5" class="st1" width="375.4" height="312.1"/>
	<line class="st4" x1="51.1" y1="137.5" x2="426.5" y2="137.5"/>
	<rect x="51.1" y="5.5" class="st1" width="375.4" height="312.1"/>
	<line class="st4" x1="407.6" y1="54.5" x2="426.5" y2="54.5"/>
	<line class="st5" x1="272.6" y1="54.5" x2="407.6" y2="54.5"/>
	<line class="st4" x1="51.1" y1="54.5" x2="272.6" y2="54.5"/>
	<rect x="51.1" y="5.5" class="st1" width="375.4" height="312.1"/>
	<line class="st4" x1="137.6" y1="317.6" x2="137.6" y2="5.5"/>
	<rect x="51.1" y="5.5" class="st1" width="375.4" height="312.1"/>
	<line class="st4" x1="227.6" y1="317.6" x2="227.6" y2="5.5"/>
	<rect x="51.1" y="5.5" class="st1" width="375.4" height="312.1"/>
	<line class="st4" x1="317.6" y1="317.6" x2="317.6" y2="5.5"/>
	<rect x="51.1" y="5.5" class="st1" width="375.4" height="312.1"/>
	<line class="st4" x1="407.6" y1="317.6" x2="407.6" y2="5.5"/>
	<rect x="51.1" y="5.5" class="st1" width="375.4" height="312.1"/>
	<polyline class="st6" points="68.2,300.1 70.1,280.2 71.9,283.5 73.8,293.5 75.7,290.2 77.6,291.8 79.4,291.8 81.3,298.4 
		83.2,300.1 85.1,275.2 86.9,265.3 88.8,247 90.7,288.5 92.6,261.9 94.4,278.5 96.3,283.5 98.2,290.2 100.1,298.4 101.9,275.2 
		103.8,301.8 105.7,286.8 107.6,296.8 109.4,298.4 111.3,295.1 113.2,288.5 115.1,290.2 116.9,295.1 118.8,265.3 120.7,266.9 
		122.6,288.5 124.4,295.1 126.3,291.8 128.2,293.5 130.1,291.8 131.9,293.5 133.8,303.4 135.7,273.6 137.6,203.9 139.4,19.7 
		141.3,195.6 143.2,248.7 145.1,281.9 146.9,283.5 148.8,278.5 150.7,296.8 152.6,303.4 154.4,298.4 156.3,303.4 158.2,300.1 
		160.1,303.4 161.9,301.8 163.8,300.1 165.7,301.8 167.6,300.1 169.4,295.1 171.3,291.8 173.2,296.8 175.1,296.8 176.9,290.2 
		178.8,295.1 180.7,280.2 182.6,291.8 184.4,296.8 186.3,295.1 188.2,293.5 190.1,303.4 191.9,301.8 193.8,303.4 195.7,303.4 
		197.6,303.4 199.4,303.4 201.3,303.4 203.2,301.8 205.1,301.8 206.9,301.8 208.8,298.4 210.7,298.4 212.6,301.8 214.4,296.8 
		216.3,301.8 218.2,298.4 220.1,296.8 221.9,298.4 223.8,296.8 225.7,296.8 227.6,300.1 229.4,293.5 231.3,296.8 233.2,303.4 
		235.1,298.4 236.9,298.4 238.8,303.4 240.7,298.4 242.6,303.4 244.4,303.4 246.3,303.4 248.2,301.8 250.1,301.8 252,298.4 
		253.8,301.8 255.7,298.4 257.6,296.8 259.5,295.1 261.3,298.4 263.2,298.4 265.1,301.8 266.9,300.1 268.8,300.1 270.7,301.8 
		272.6,303.4 274.4,293.5 276.3,301.8 278.2,303.4 280.1,303.4 281.9,301.8 283.8,303.4 285.7,303.4 287.6,303.4 289.5,303.4 
		291.3,303.4 293.2,303.4 295.1,298.4 297,301.8 298.8,301.8 300.7,300.1 302.6,301.8 304.4,303.4 306.3,298.4 308.2,300.1 
		310.1,300.1 311.9,268.6 313.8,266.9 315.7,222.1 317.6,235.4 319.5,235.4 321.3,218.8 323.2,213.8 325.1,260.3 327,298.4 
		328.8,301.8 330.7,301.8 332.6,301.8 334.5,296.8 336.3,283.5 338.2,296.8 340.1,291.8 342,283.5 343.8,106 345.7,213.8 
		347.6,235.4 349.4,228.8 351.3,212.2 353.2,255.3 355.1,268.6 357,250.3 358.8,210.5 360.7,213.8 362.6,174 364.5,218.8 
		366.3,250.3 368.2,275.2 370.1,295.1 372,301.8 373.8,295.1 375.7,296.8 377.6,300.1 379.5,291.8 381.3,293.5 383.2,238.7 
		385.1,260.3 387,288.5 388.8,253.6 390.7,280.2 392.6,275.2 394.5,291.8 396.3,278.5 398.2,250.3 400.1,266.9 402,288.5 
		403.8,268.6 405.7,288.5 407.6,280.2 409.5,281.9 	"/>
	<text transform="matrix(1 0 0 1 39.6255 305.5732)" class="st7 st8 st9">0</text>
	<text transform="matrix(1 0 0 1 34.8911 223.1807)" class="st7 st8 st9">50</text>
	<text transform="matrix(1 0 0 1 30.1655 139.624)" class="st7 st8 st9">100</text>
	<text transform="matrix(1 0 0 1 30.1655 56.6592)" class="st7 st8 st9">150</text>
	<line class="st10" x1="48.5" y1="303.4" x2="51.1" y2="303.4"/>
	<line class="st10" x1="48.5" y1="220.5" x2="51.1" y2="220.5"/>
	<line class="st10" x1="48.5" y1="137.5" x2="51.1" y2="137.5"/>
	<line class="st10" x1="48.5" y1="54.5" x2="51.1" y2="54.5"/>
	<text transform="matrix(1 0 0 1 146.5584 327.5654)" class="st7 st8 st9">Apr 29</text>
	<text transform="matrix(1 0 0 1 235.263 328.1484)" class="st7 st8 st9">May 01</text>
	<text transform="matrix(1 0 0 1 325.2718 328.1484)" class="st7 st8 st9">May 03</text>
	<text transform="matrix(1 0 0 1 57.5832 328.1484)" class="st7 st8 st9">Apr 27</text>
	<text transform="matrix(1 0 0 1 216.0003 347.6602)" class="st8 st11">Date</text>
	<text transform="matrix(4.965855e-05 -1 1 4.965855e-05 19.6524 244.3165)" class="st8 st11">Number of Tweets (by hour)</text>
	<line class="st12" x1="51.1" y1="317.6" x2="92.6" y2="317.6"/>
	<line class="st12" x1="138.1" y1="317.6" x2="182.6" y2="317.6"/>
	<line class="st12" x1="227.9" y1="317.6" x2="272.3" y2="317.6"/>
	<line class="st12" x1="317.9" y1="317.6" x2="362.3" y2="317.6"/>
</g>
<g id="Layer_2">
	<path class="st13" d="M272.6,95.4c1.8-3.7,6.8-6,11.8-6.6c4.9-0.6,10,0.1,14.9,0.7c8.4,1,17,1.5,25.4,0.3
		c5.3-0.8,10.7-2.5,13.9-5.9c-0.8,2,0.7,4.2,2.8,5.4c2.1,1.2,4.8,1.6,7.4,2c15.1,1.9,30.5,1.9,45.5-0.2c2.8-0.4,5.7-0.8,8.5-0.2
		s5.2,2.7,4.7,5"/>
	<text transform="matrix(1 0 0 1 279.2671 56.853)"><tspan x="0" y="0" class="st14 st8 st15">33 EF-1 and 6 EF-2 tornadoes</tspan><tspan x="0" y="10.8" class="st14 st8 st15">touched down over a three-day</tspan><tspan x="0" y="21.6" class="st14 st8 st15">period in the southern US</tspan></text>
	<text transform="matrix(1 0 0 1 192.0041 27.6187)"><tspan x="0" y="0" class="st14 st8 st15">late April saw tornadic activity</tspan><tspan x="0" y="10.8" class="st14 st8 st15">in Texas, Oklahoma, and Colorado</tspan></text>
	<path class="st13" d="M144.7,59c6.3,0.3,12.7-2,17.2-6.3c4.3-4.1,6.9-9.6,10.5-14.3s9-8.9,14.9-8.3"/>
</g>
</svg>
