<?xml version="1.0" encoding="utf-8"?>
<!-- Generator: Adobe Illustrator 25.2.3, SVG Export Plug-In . SVG Version: 6.00 Build 0)  -->
<svg version="1.1" id="Layer_1" xmlns="http://www.w3.org/2000/svg" xmlns:xlink="http://www.w3.org/1999/xlink" x="0px" y="0px"
	 viewBox="0 0 360 360" style="enable-background:new 0 0 360 360;" xml:space="preserve">
<style type="text/css">
	.st0{fill:#FFFFFF;}
	.st1{fill:none;}
	.st2{fill:#EBEBEB;}
	.st3{fill:none;stroke:#FFFFFF;stroke-width:0.53;stroke-linejoin:round;stroke-miterlimit:10;}
	.st4{fill:none;stroke:#FFFFFF;stroke-width:1.07;stroke-linejoin:round;stroke-miterlimit:10;}
	.st5{fill:#6FB0D8;}
	.st6{fill:#4D4D4D;}
	.st7{font-family:'Alice-Regular';}
	.st8{font-size:8px;}
	.st9{font-size:7px;}
	.st10{fill:none;stroke:#333333;stroke-width:1.07;stroke-linejoin:round;stroke-miterlimit:10;}
	.st11{font-size:12px;}
</style>
<g id="Layer_2_1_">
	<rect class="st0" width="360" height="360"/>
</g>
<g id="Layer_1_1_">
	<rect x="60.3" y="23.1" class="st1" width="293.5" height="305.3"/>
	<rect x="60.3" y="23.1" class="st2" width="293.5" height="305.3"/>
	<rect x="60.3" y="23.1" class="st1" width="293.5" height="305.3"/>
	<line class="st3" x1="125.9" y1="328.4" x2="125.9" y2="23.1"/>
	<rect x="60.3" y="23.1" class="st1" width="293.5" height="305.3"/>
	<line class="st3" x1="230.5" y1="328.4" x2="230.5" y2="23.1"/>
	<rect x="60.3" y="23.1" class="st1" width="293.5" height="305.3"/>
	<line class="st3" x1="335.1" y1="328.4" x2="335.1" y2="23.1"/>
	<rect x="60.3" y="23.1" class="st1" width="293.5" height="305.3"/>
	<line class="st4" x1="60.3" y1="316.4" x2="353.8" y2="316.4"/>
	<rect x="60.3" y="23.1" class="st1" width="293.5" height="305.3"/>
	<line class="st4" x1="60.3" y1="296.3" x2="353.8" y2="296.3"/>
	<rect x="60.3" y="23.1" class="st1" width="293.5" height="305.3"/>
	<line class="st4" x1="60.3" y1="276.2" x2="353.8" y2="276.2"/>
	<rect x="60.3" y="23.1" class="st1" width="293.5" height="305.3"/>
	<line class="st4" x1="60.3" y1="256.1" x2="353.8" y2="256.1"/>
	<rect x="60.3" y="23.1" class="st1" width="293.5" height="305.3"/>
	<line class="st4" x1="60.3" y1="236" x2="353.8" y2="236"/>
	<rect x="60.3" y="23.1" class="st1" width="293.5" height="305.3"/>
	<line class="st4" x1="60.3" y1="215.9" x2="353.8" y2="215.9"/>
	<rect x="60.3" y="23.1" class="st1" width="293.5" height="305.3"/>
	<line class="st4" x1="60.3" y1="195.8" x2="353.8" y2="195.8"/>
	<rect x="60.3" y="23.1" class="st1" width="293.5" height="305.3"/>
	<line class="st4" x1="60.3" y1="175.8" x2="353.8" y2="175.8"/>
	<rect x="60.3" y="23.1" class="st1" width="293.5" height="305.3"/>
	<line class="st4" x1="60.3" y1="155.7" x2="353.8" y2="155.7"/>
	<rect x="60.3" y="23.1" class="st1" width="293.5" height="305.3"/>
	<line class="st4" x1="60.3" y1="135.6" x2="353.8" y2="135.6"/>
	<rect x="60.3" y="23.1" class="st1" width="293.5" height="305.3"/>
	<line class="st4" x1="60.3" y1="115.5" x2="353.8" y2="115.5"/>
	<rect x="60.3" y="23.1" class="st1" width="293.5" height="305.3"/>
	<line class="st4" x1="60.3" y1="95.4" x2="353.8" y2="95.4"/>
	<rect x="60.3" y="23.1" class="st1" width="293.5" height="305.3"/>
	<line class="st4" x1="60.3" y1="75.3" x2="353.8" y2="75.3"/>
	<rect x="60.3" y="23.1" class="st1" width="293.5" height="305.3"/>
	<line class="st4" x1="60.3" y1="55.2" x2="353.8" y2="55.2"/>
	<rect x="60.3" y="23.1" class="st1" width="293.5" height="305.3"/>
	<line class="st4" x1="60.3" y1="35.1" x2="353.8" y2="35.1"/>
	<rect x="60.3" y="23.1" class="st1" width="293.5" height="305.3"/>
	<line class="st4" x1="73.6" y1="328.4" x2="73.6" y2="23.1"/>
	<rect x="60.3" y="23.1" class="st1" width="293.5" height="305.3"/>
	<line class="st4" x1="178.2" y1="328.4" x2="178.2" y2="23.1"/>
	<rect x="60.3" y="23.1" class="st1" width="293.5" height="305.3"/>
	<line class="st4" x1="282.8" y1="328.4" x2="282.8" y2="23.1"/>
	<rect x="60.3" y="23.1" class="st1" width="293.5" height="305.3"/>
	<rect x="73.6" y="26.1" class="st5" width="266.8" height="18.1"/>
	<rect x="60.3" y="23.1" class="st1" width="293.5" height="305.3"/>
	<rect x="73.6" y="46.2" class="st5" width="123.9" height="18.1"/>
	<rect x="60.3" y="23.1" class="st1" width="293.5" height="305.3"/>
	<rect x="73.6" y="66.3" class="st5" width="122" height="18.1"/>
	<rect x="60.3" y="23.1" class="st1" width="293.5" height="305.3"/>
	<rect x="73.6" y="86.4" class="st5" width="110" height="18.1"/>
	<rect x="60.3" y="23.1" class="st1" width="293.5" height="305.3"/>
	<rect x="73.6" y="106.5" class="st5" width="105.7" height="18.1"/>
	<rect x="60.3" y="23.1" class="st1" width="293.5" height="305.3"/>
	<rect x="73.6" y="126.5" class="st5" width="83.2" height="18.1"/>
	<rect x="60.3" y="23.1" class="st1" width="293.5" height="305.3"/>
	<rect x="73.6" y="146.6" class="st5" width="72.2" height="18.1"/>
	<rect x="60.3" y="23.1" class="st1" width="293.5" height="305.3"/>
	<rect x="73.6" y="166.7" class="st5" width="72.2" height="18.1"/>
	<rect x="60.3" y="23.1" class="st1" width="293.5" height="305.3"/>
	<rect x="73.6" y="186.8" class="st5" width="70" height="18.1"/>
	<rect x="60.3" y="23.1" class="st1" width="293.5" height="305.3"/>
	<rect x="73.6" y="206.9" class="st5" width="64.6" height="18.1"/>
	<rect x="60.3" y="23.1" class="st1" width="293.5" height="305.3"/>
	<rect x="73.6" y="227" class="st5" width="58.8" height="18.1"/>
	<rect x="60.3" y="23.1" class="st1" width="293.5" height="305.3"/>
	<rect x="73.6" y="247.1" class="st5" width="56.7" height="18.1"/>
	<rect x="60.3" y="23.1" class="st1" width="293.5" height="305.3"/>
	<rect x="73.6" y="267.1" class="st5" width="56.3" height="18.1"/>
	<rect x="60.3" y="23.1" class="st1" width="293.5" height="305.3"/>
	<rect x="73.6" y="287.2" class="st5" width="52.9" height="18.1"/>
	<rect x="60.3" y="23.1" class="st1" width="293.5" height="305.3"/>
	<rect x="73.6" y="307.3" class="st5" width="52.5" height="18.1"/>
	<rect x="-0.7" y="-0.1" class="st1" width="360" height="360"/>
	<text transform="matrix(1 0 0 1 44.3583 318.3097)" class="st6 st7 st8">ms</text>
	<rect x="-0.7" y="-0.1" class="st1" width="360" height="360"/>
	<text transform="matrix(1 0 0 1 19.2524 298.4778)" class="st6 st7 st8">continues</text>
	<rect x="-0.7" y="-0.1" class="st1" width="360" height="360"/>
	<rect x="45.6" y="271.8" class="st1" width="9.8" height="10.4"/>
	<text transform="matrix(1 0 0 1 45.5685 278.3396)" class="st6 st7 st8">0</text>
	<text transform="matrix(1 0 0 1 50.6685 278.3396)" class="st6 st7 st8">0</text>
	<rect x="-0.7" y="-0.1" class="st1" width="360" height="360"/>
	<text transform="matrix(1 0 0 1 47.5363 258.2072)" class="st6 st7 st8">tx</text>
	<rect x="-0.7" y="-0.1" class="st1" width="360" height="360"/>
	<rect x="29.9" y="231.6" class="st1" width="25.4" height="10.4"/>
	<text transform="matrix(1 0 0 1 29.9185 238.1692)" class="st6 st7 st8">issue</text>
	<text transform="matrix(1 0 0 1 50.7185 238.1692)" class="st6 st7 st8">d</text>
	<rect x="-0.7" y="-0.1" class="st1" width="360" height="360"/>
	<rect x="33.4" y="211.5" class="st1" width="22" height="10.4"/>
	<text transform="matrix(1 0 0 1 33.3584 218.0799)" class="st6 st7 st8">stor</text>
	<text transform="matrix(1 0 0 1 48.1584 218.0799)" class="st6 st7 st8">m</text>
	<rect x="-0.7" y="-0.1" class="st1" width="360" height="360"/>
	<text transform="matrix(1 0 0 1 25.3443 198.2175)" class="st6 st7 st8">weather</text>
	<rect x="-0.7" y="-0.1" class="st1" width="360" height="360"/>
	<text transform="matrix(1 0 0 1 45.5118 177.5575)" class="st6 st7 st9">till</text>
	<rect x="-0.7" y="-0.1" class="st1" width="360" height="360"/>
	<text transform="matrix(1 0 0 1 32.3685 157.4472)" class="st6 st7 st8">severe</text>
	<rect x="-0.7" y="-0.1" class="st1" width="360" height="360"/>
	<rect x="29.4" y="131.2" class="st1" width="25.9" height="10.4"/>
	<text transform="matrix(1 0 0 1 29.4283 137.7293)" class="st6 st7 st8">count</text>
	<text transform="matrix(1 0 0 1 50.9283 137.7293)" class="st6 st7 st8">y</text>
	<rect x="-0.7" y="-0.1" class="st1" width="360" height="360"/>
	<rect x="41.7" y="111.1" class="st1" width="13.7" height="10.4"/>
	<text transform="matrix(1 0 0 1 41.6584 117.6497)" class="st6 st7 st8">hai</text>
	<text transform="matrix(1 0 0 1 53.0583 117.6497)" class="st6 st7 st8">l</text>
	<rect x="-0.7" y="-0.1" class="st1" width="360" height="360"/>
	<rect x="43.6" y="91" class="st1" width="11.7" height="10.4"/>
	<text transform="matrix(1 0 0 1 43.6183 97.5594)" class="st6 st7 st8">cd</text>
	<text transform="matrix(1 0 0 1 52.3182 97.5594)" class="st6 st7 st8">t</text>
	<rect x="-0.7" y="-0.1" class="st1" width="360" height="360"/>
	<text transform="matrix(1 0 0 1 43.1284 78.4973)" class="st6 st7 st8">pm</text>
	<rect x="-0.7" y="-0.1" class="st1" width="360" height="360"/>
	<rect x="32.4" y="50.8" class="st1" width="23" height="10.4"/>
	<text transform="matrix(1 0 0 1 32.3682 57.3797)" class="st6 st7 st8">watc</text>
	<text transform="matrix(1 0 0 1 50.6682 57.3797)" class="st6 st7 st8">h</text>
	<rect x="-0.7" y="-0.1" class="st1" width="360" height="360"/>
	<rect x="24.6" y="30.7" class="st1" width="30.8" height="10.4"/>
	<text transform="matrix(1 0 0 1 24.5382 37.2996)" class="st6 st7 st8">warnin</text>
	<text transform="matrix(1 0 0 1 51.1382 37.2996)" class="st6 st7 st8">g</text>
	<rect x="-0.7" y="-0.1" class="st1" width="360" height="360"/>
	<line class="st10" x1="57.6" y1="316.4" x2="60.3" y2="316.4"/>
	<rect x="-0.7" y="-0.1" class="st1" width="360" height="360"/>
	<line class="st10" x1="57.6" y1="296.3" x2="60.3" y2="296.3"/>
	<rect x="-0.7" y="-0.1" class="st1" width="360" height="360"/>
	<line class="st10" x1="57.6" y1="276.2" x2="60.3" y2="276.2"/>
	<rect x="-0.7" y="-0.1" class="st1" width="360" height="360"/>
	<line class="st10" x1="57.6" y1="256.1" x2="60.3" y2="256.1"/>
	<rect x="-0.7" y="-0.1" class="st1" width="360" height="360"/>
	<line class="st10" x1="57.6" y1="236" x2="60.3" y2="236"/>
	<rect x="-0.7" y="-0.1" class="st1" width="360" height="360"/>
	<line class="st10" x1="57.6" y1="215.9" x2="60.3" y2="215.9"/>
	<rect x="-0.7" y="-0.1" class="st1" width="360" height="360"/>
	<line class="st10" x1="57.6" y1="195.8" x2="60.3" y2="195.8"/>
	<rect x="-0.7" y="-0.1" class="st1" width="360" height="360"/>
	<line class="st10" x1="57.6" y1="175.8" x2="60.3" y2="175.8"/>
	<rect x="-0.7" y="-0.1" class="st1" width="360" height="360"/>
	<line class="st10" x1="57.6" y1="155.7" x2="60.3" y2="155.7"/>
	<rect x="-0.7" y="-0.1" class="st1" width="360" height="360"/>
	<line class="st10" x1="57.6" y1="135.6" x2="60.3" y2="135.6"/>
	<rect x="-0.7" y="-0.1" class="st1" width="360" height="360"/>
	<line class="st10" x1="57.6" y1="115.5" x2="60.3" y2="115.5"/>
	<rect x="-0.7" y="-0.1" class="st1" width="360" height="360"/>
	<line class="st10" x1="57.6" y1="95.4" x2="60.3" y2="95.4"/>
	<rect x="-0.7" y="-0.1" class="st1" width="360" height="360"/>
	<line class="st10" x1="57.6" y1="75.3" x2="60.3" y2="75.3"/>
	<rect x="-0.7" y="-0.1" class="st1" width="360" height="360"/>
	<line class="st10" x1="57.6" y1="55.2" x2="60.3" y2="55.2"/>
	<rect x="-0.7" y="-0.1" class="st1" width="360" height="360"/>
	<line class="st10" x1="57.6" y1="35.1" x2="60.3" y2="35.1"/>
	<rect x="-0.7" y="-0.1" class="st1" width="360" height="360"/>
	<line class="st10" x1="73.6" y1="331.1" x2="73.6" y2="328.4"/>
	<rect x="-0.7" y="-0.1" class="st1" width="360" height="360"/>
	<line class="st10" x1="178.2" y1="331.1" x2="178.2" y2="328.4"/>
	<rect x="-0.7" y="-0.1" class="st1" width="360" height="360"/>
	<line class="st10" x1="282.8" y1="331.1" x2="282.8" y2="328.4"/>
	<rect x="-0.7" y="-0.1" class="st1" width="360" height="360"/>
	<text transform="matrix(1 0 0 1 71.1784 339.6773)" class="st6 st7 st8">0</text>
	<rect x="-0.7" y="-0.1" class="st1" width="360" height="360"/>
	<rect x="168.4" y="332.1" class="st1" width="19.6" height="10.4"/>
	<text transform="matrix(1 0 0 1 168.4083 338.6502)" class="st6 st7 st8">500</text>
	<text transform="matrix(1 0 0 1 181.5833 338.6502)" class="st6 st7 st8">0</text>
	<rect x="-0.7" y="-0.1" class="st1" width="360" height="360"/>
	<text transform="matrix(1 0 0 1 270.5284 339.6773)" class="st6 st7 st8">10000</text>
	<rect x="-0.7" y="-0.1" class="st1" width="360" height="360"/>
	<text transform="matrix(1 0 0 1 192.3684 352.1473)" class="st7 st11">Count</text>
	<rect x="-0.7" y="-0.1" class="st1" width="360" height="360"/>
	<rect x="3.2" y="132.6" class="st1" width="13" height="76.8"/>
	<text transform="matrix(6.123234e-17 -1 1 6.123234e-17 12.9747 209.418)" class="st7 st11">Unique</text>
	<text transform="matrix(6.123234e-17 -1 1 6.123234e-17 12.9747 170.1182)" class="st7 st11"> </text>
	<text transform="matrix(6.123234e-17 -1 1 6.123234e-17 12.9747 166.1182)" class="st7 st11">words</text>
	<rect x="-0.7" y="-0.1" class="st1" width="360" height="360"/>
	<text transform="matrix(1 0 0 1 60.2885 15.2754)" class="st7 st11">Most common words in tornado-related tweets</text>
</g>
</svg>
